<svg xmlns="http://www.w3.org/2000/svg" xmlns:xlink="http://www.w3.org/1999/xlink" fill="none" version="1.1" width="782" height="295" viewBox="0 0 782 295"><defs><mask id="master_svg0_377_03942"><g style="mix-blend-mode:passthrough"><rect x="0" y="0" width="782" height="295" rx="25" fill="#FFFFFF" fill-opacity="1"/></g></mask></defs><g style="mix-blend-mode:passthrough"><g style="mix-blend-mode:passthrough"><rect x="0" y="0" width="782" height="295" rx="25" fill="#FFFFFF" fill-opacity="1"/></g><g style="mix-blend-mode:passthrough" mask="url(#master_svg0_377_03942)"><g style="opacity:0.15000000596046448;mix-blend-mode:passthrough" transform="matrix(0.9161046743392944,0.40093907713890076,-0.412584513425827,0.9109193086624146,-154.02601756545482,-240.74097020171757)"><rect x="495.12939453125" y="-474" width="451.4347839355469" height="446.2829895019531" rx="32" fill="#3EAF7C" fill-opacity="1"/></g><g style="opacity:0.15000000596046448;mix-blend-mode:passthrough" transform="matrix(0.9905745387077332,-0.13685080409049988,0.1415332406759262,0.9899518489837646,-38.042471590473724,-17.652129871188663)"><rect x="-148" y="258.93212890625" width="452.5516052246094" height="445.1505432128906" rx="32" fill="#3EAF7C" fill-opacity="1"/></g><g style="mix-blend-mode:passthrough" transform="matrix(0.9848077893257141,0.1736481934785843,-0.1736481934785843,0.9848077893257141,-29.57404443538144,-97.96763579367689)"><path d="M803.3685859375,-216.3644620703125Q802.9735859375,-204.2841220703125,802.0035859375,-192.7722220703125Q793.0415859375,-86.3801220703125,735.1165859375,-28.662122070312506Q677.1925859375,29.054877929687507,570.4185859375,37.982877929687504Q558.8709859375,38.94787792968748,546.7416659375,39.34287792968752Q546.0180829375,39.36687792968752,545.7283129375,39.33587792968751Q545.0607484375,39.26387792968751,544.6477219375,38.86487792968751Q544.2323059375,38.4638779296875,544.1400699375,37.78887792968749Q544.1005859375,37.4998779296875,544.1005859375,36.760877929687496L544.1005859375,-216.4150020703125Q544.1005859375,-217.1359920703125,544.1386889375,-217.4183760703125Q544.2276569375,-218.0777321703125,544.6277259375,-218.4763640703125Q545.0267547375,-218.8739550703125,545.6858589375,-218.9622510703125Q545.9685559375,-219.0001220703125,546.6914259375,-219.0001220703125L800.7815859375,-219.0001220703125Q801.5225859375,-219.0001220703125,801.8115859375,-218.9608770703125Q802.4865859375,-218.8693290703125,802.8875859375,-218.4568350703125L802.8885859375,-218.4564150703125Q802.8965859375,-218.4473750703125,802.9045859375,-218.4387650703125Q803.1925859375,-218.1340870703125,803.3045859375,-217.6938520703125Q803.3435859374999,-217.5428260703125,803.3615859375,-217.3758160703125Q803.3925859374999,-217.0863050703125,803.3685859375,-216.3645920703125L803.3685859375,-216.3644620703125ZM802.3695859375,-216.3973520703125Q801.9745859375,-204.3420220703125,801.0075859375,-192.8562220703125Q792.0785859375001,-86.83112207031249,734.4105859375,-29.37112207031251Q676.7425859375,28.089877929687503,570.3352859375,36.98587792968749Q558.8079859375,37.94987792968749,546.7091459375,38.343877929687494C545.9590259375,38.367877929687495,545.5837789375,38.37887792968752,545.3422579375,38.145877929687515C545.1007370355,37.911877929687506,545.1005859375,37.528877929687496,545.1005859375,36.760877929687496L545.1005859375,-216.4150020703125C545.1005859375,-217.1622350703125,545.1005859375,-217.5358500703125,545.3335599375,-217.7679860703125C545.5665349375,-218.0001220703125,545.9414979375,-218.0001220703125,546.6914259375,-218.0001220703125L800.7815859375,-218.0001220703125C801.5515859375,-218.0001220703125,801.9365859375,-217.9999715153125,802.1715859375,-217.7593200703125C802.4055859375001,-217.5186680703125,802.3945859375,-217.1447710703125,802.3695859375,-216.3973520703125ZM780.4045859375,-197.1861220703125Q779.9555859375,-191.4182220703125,779.3575859375001,-185.8075220703125Q769.5475859375,-93.8141220703125,719.6435859375,-44.0901220703125Q666.6945859375,8.669877929687487,565.9860859375,16.453877929687508L565.9860859375,-197.1861220703125L780.4045859375,-197.1861220703125ZM781.4075859375,-197.1861220703125Q773.5795859375,-96.4201220703125,720.3495859375,-43.3811220703125Q667.1185859375,9.657877929687487,565.9860859375,17.456877929687494Q565.4847859375,17.49587792968751,564.9860859375,17.532877929687487L564.9860859375,-198.1861220703125L781.4845859375,-198.1861220703125Q781.4465859375,-197.6852220703125,781.4075859375,-197.1861220703125ZM567.6933859375,59.167877929687506Q566.7463859375,58.83587792968751,566.7031859375,58.03787792968751Q566.6590859375,57.22487792968752,567.5948859375,56.79987792968751Q567.9839859375,56.623877929687524,568.7102859375,56.4398779296875Q569.8917859375,56.141877929687496,572.5929859375,55.68087792968748L578.8659859375,54.66287792968751L587.0865859375,53.33687792968749L591.4321859375,52.6128779296875Q622.0326859375,47.43587792968748,648.5955859375,38.240877929687485Q705.6345859375,18.496877929687514,744.0455859374999,-19.77612207031251Q782.4545859375,-58.0471220703125,802.2705859375001,-114.8801220703125Q811.4965859375,-141.3429220703125,816.6945859375,-171.8392220703125L817.4215859375,-176.1669220703125L817.4225859375,-176.1723220703125L818.7515859375001,-184.3568220703125L818.7515859375001,-184.3579220703125L819.7725859375,-190.6003220703125Q820.2365859375,-193.2992220703125,820.5355859375,-194.4779220703125Q820.7195859375,-195.2025220703125,820.8975859375,-195.5907220703125Q821.3235859375,-196.5225220703125,822.1345859375,-196.4788220703125Q822.9315859375,-196.4360220703125,823.2645859375,-195.4919220703125Q823.4075859375,-195.0880220703125,823.5145859375,-194.3707220703125Q823.7055859375,-193.0932220703125,823.8295859375,-190.5545220703125Q824.0585859375001,-185.8580220703125,824.0935859374999,-175.69312207031248L824.1005859375,-171.3200220703125L824.1005859375,57.41487792968752Q824.1005859375,58.135877929687524,824.0625859375,58.417877929687506Q823.9735859375,59.0768779296875,823.5735859375,59.4758779296875Q823.1745859375001,59.873877929687524,822.5155859375,59.96187792968749Q822.2325859375001,59.9998779296875,821.5095859375,59.9998779296875L591.9507859375,59.9998779296875L587.5621859375,59.992877929687495Q577.3604859375,59.95787792968753,572.6457859375,59.72987792968752Q570.0992859375,59.60687792968753,568.8168859375,59.41687792968747Q568.0978859375,59.3098779296875,567.6933859375,59.167877929687506ZM819.7385859374999,-184.19652207031248C820.1385859375,-186.6882220703125,820.4715859375,-188.7699220703125,820.7585859375,-190.4390220703125C821.0505859375,-192.1371220703125,821.2945859375,-193.40812207031252,821.5095859375,-194.2491220703125C821.5425859375,-194.3791220703125,821.5755859375,-194.4987220703125,821.6075859375001,-194.6081220703125C821.7785859375,-195.1970220703125,821.9335859375001,-195.4882220703125,822.0815859375,-195.4803220703125C822.2285859374999,-195.4723220703125,822.3575859375001,-195.1677220703125,822.4685859374999,-194.5664220703125C822.4895859375,-194.4535220703125,822.5105859375001,-194.33022207031252,822.5295859375,-194.1964220703125C822.8985859375,-191.6923220703125,823.0595859375001,-185.5248220703125,823.0935859374999,-175.6896220703125C823.0985859375,-174.3053220703125,823.1005859375,-172.8482220703125,823.1005859375,-171.3184220703125L823.1005859375,57.41487792968752C823.1005859375,58.16187792968748,823.1005859375,58.5358779296875,822.8675859375,58.76787792968747C822.6345859375,58.9998779296875,822.2595859375,58.9998779296875,821.5095859375,58.9998779296875L591.9507859375,58.9998779296875C590.4154859375,58.9998779296875,588.9531859375,58.99787792968749,587.5637859375,58.992877929687495C577.7030859375,58.9588779296875,571.5158859375,58.79887792968748,568.9977859375,58.431877929687516C568.8597859375,58.41187792968748,568.7327859375,58.391877929687496,568.6167859375,58.369877929687505C568.0146859375,58.258877929687515,567.7096859375,58.13087792968747,567.7016859375,57.98387792968748C567.6937859375,57.83687792968749,567.9855859375,57.68287792968749,568.5755859375,57.5118779296875C568.6880859375,57.47987792968752,568.8113859375,57.445877929687526,568.9454859375,57.41187792968748C569.7896859375,57.19887792968751,571.0624859375,56.956877929687494,572.7612859375,56.66687792968747C574.4363859375,56.38087792968747,576.5254859375,56.0478779296875,579.0261859375,55.64987792968748C581.3969859375,55.272877929687525,584.1374859375001,54.83587792968751,587.2456859375,54.32487792968749C588.6238859375,54.09787792968751,590.0742859375,53.85687792968753,591.5967859375,53.59887792968749Q622.2821859375,48.407877929687515,648.9225859375,39.18587792968748Q706.1785859375,19.36687792968749,744.7515859375001,-19.067122070312507Q783.3245859374999,-57.50212207031251,803.2155859375,-114.5511220703125Q812.4695859375,-141.0961220703125,817.6805859374999,-171.6712220703125C817.9385859375,-173.1882220703125,818.1815859375,-174.6334220703125,818.4085859375,-176.00662207031252C818.9215859375,-179.1036220703125,819.3595859375,-181.8343220703125,819.7385859374999,-184.19652207031248ZM758.8125859375,-5.057122070312488Q784.3165859375,-30.469122070312494,802.2155859375,-63.19512207031249Q802.7185859374999,-64.11512207031251,803.2155859375,-65.0411220703125L803.2155859375,39.18587792968748L698.6265859375001,39.18587792968748Q699.5585859375,38.68887792968752,700.4845859375,38.18587792968748Q733.3085859375,20.355877929687495,758.8125859375,-5.057122070312488ZM702.5675859375,38.18587792968748L802.2155859375,38.18587792968748L802.2155859375,-61.124122070312495Q784.5045859375,-29.245122070312505,759.5185859375,-4.348122070312513Q734.8345859375,20.246877929687514,703.3285859375001,37.76387792968751Q702.9495859374999,37.974877929687494,702.5675859375,38.18587792968748Z" fill-rule="evenodd" fill="#3EAF7C" fill-opacity="1"/></g><g style="mix-blend-mode:passthrough" transform="matrix(0.9563049077987671,-0.2923717498779297,0.2923717498779297,0.9563049077987671,-54.906193766742945,153.1732265658211)"><path d="M743.268,261.914956875Q742.873,273.995296875,741.903,285.507196875Q732.941,391.899296875,675.016,449.61729687499997Q617.092,507.334296875,510.318,516.262296875Q498.7704,517.227296875,486.64108,517.6222968750001Q485.917497,517.646296875,485.627727,517.615296875Q484.9601625,517.543296875,484.547136,517.144296875Q484.13172,516.7432968749999,484.039484,516.068296875Q484,515.779296875,484,515.040296875L484,261.864416875Q484,261.143426875,484.038103,260.861042875Q484.127071,260.201686775,484.52714,259.803054875Q484.9261688,259.405463875,485.585273,259.317167875Q485.86797,259.279296875,486.59084,259.279296875L740.681,259.279296875Q741.422,259.279296875,741.711,259.318541875Q742.386,259.410089875,742.787,259.822583875L742.788,259.823003875Q742.796,259.832043875,742.804,259.840653875Q743.092,260.145331875,743.204,260.585566875Q743.2429999999999,260.736592875,743.261,260.903602875Q743.2919999999999,261.193113875,743.268,261.914826875L743.268,261.914956875ZM742.269,261.882066875Q741.874,273.937396875,740.907,285.423196875Q731.9780000000001,391.448296875,674.31,448.908296875Q616.642,506.36929687500003,510.2347,515.265296875Q498.7074,516.229296875,486.60856,516.623296875C485.85844,516.6472968749999,485.483193,516.658296875,485.241672,516.425296875C485.000151098,516.191296875,485,515.808296875,485,515.040296875L485,261.864416875C485,261.117183875,485,260.743568875,485.232974,260.511432875C485.465949,260.279296875,485.840912,260.279296875,486.59084,260.279296875L740.681,260.279296875C741.451,260.279296875,741.836,260.27944743,742.071,260.520098875C742.3050000000001,260.760750875,742.294,261.134647875,742.269,261.882066875ZM720.304,281.093296875Q719.855,286.861196875,719.2570000000001,292.47189687499997Q709.447,384.46529687500004,659.543,434.18929687499997Q606.594,486.94929687499996,505.8855,494.733296875L505.8855,281.093296875L720.304,281.093296875ZM721.307,281.093296875Q713.479,381.859296875,660.249,434.898296875Q607.018,487.937296875,505.8855,495.736296875Q505.3842,495.775296875,504.8855,495.812296875L504.8855,280.093296875L721.384,280.093296875Q721.346,280.594196875,721.307,281.093296875ZM507.5928,537.447296875Q506.6458,537.115296875,506.6026,536.317296875Q506.5585,535.504296875,507.4943,535.079296875Q507.8834,534.903296875,508.6097,534.719296875Q509.7912,534.421296875,512.4924,533.960296875L518.7654,532.942296875L526.986,531.616296875L531.3316,530.892296875Q561.9321,525.7152968749999,588.495,516.520296875Q645.534,496.776296875,683.9449999999999,458.503296875Q722.354,420.232296875,742.1700000000001,363.399296875Q751.396,336.936496875,756.594,306.44019687499997L757.321,302.112496875L757.322,302.107096875L758.6510000000001,293.922596875L758.6510000000001,293.921496875L759.672,287.679096875Q760.136,284.980196875,760.435,283.801496875Q760.619,283.076896875,760.797,282.688696875Q761.223,281.756896875,762.034,281.800596875Q762.831,281.843396875,763.164,282.787496875Q763.307,283.191396875,763.414,283.908696875Q763.605,285.186196875,763.729,287.724896875Q763.9580000000001,292.421396875,763.9929999999999,302.586296875L764,306.959396875L764,535.694296875Q764,536.415296875,763.962,536.697296875Q763.873,537.356296875,763.473,537.755296875Q763.0740000000001,538.153296875,762.415,538.241296875Q762.1320000000001,538.279296875,761.409,538.279296875L531.8502,538.279296875L527.4616,538.2722968749999Q517.2599,538.2372968750001,512.5452,538.009296875Q509.9987,537.886296875,508.7163,537.6962968749999Q507.9973,537.589296875,507.5928,537.447296875ZM759.6379999999999,294.082896875C760.038,291.591196875,760.371,289.509496875,760.658,287.840396875C760.95,286.142296875,761.194,284.871296875,761.409,284.030296875C761.442,283.900296875,761.475,283.780696875,761.5070000000001,283.671296875C761.678,283.082396875,761.8330000000001,282.791196875,761.981,282.799096875C762.1279999999999,282.807096875,762.2570000000001,283.111696875,762.3679999999999,283.712996875C762.389,283.825896875,762.4100000000001,283.949196875,762.429,284.082996875C762.798,286.587096875,762.9590000000001,292.754596875,762.9929999999999,302.589796875C762.998,303.974096875,763,305.431196875,763,306.960996875L763,535.694296875C763,536.441296875,763,536.8152968750001,762.767,537.047296875C762.534,537.279296875,762.159,537.279296875,761.409,537.279296875L531.8502,537.279296875C530.3149,537.279296875,528.8526,537.277296875,527.4632,537.2722968749999C517.6025,537.2382968750001,511.4153,537.078296875,508.8972,536.711296875C508.7592,536.691296875,508.6322,536.671296875,508.5162,536.649296875C507.9141,536.538296875,507.6091,536.410296875,507.6011,536.2632968749999C507.5932,536.116296875,507.885,535.962296875,508.475,535.791296875C508.5875,535.759296875,508.7108,535.725296875,508.8449,535.691296875C509.6891,535.4782968750001,510.9619,535.236296875,512.6607,534.9462968749999C514.3358,534.660296875,516.4249,534.327296875,518.9256,533.929296875C521.2964,533.552296875,524.0369000000001,533.115296875,527.1451,532.604296875C528.5233,532.377296875,529.9737,532.136296875,531.4962,531.8782968749999Q562.1816,526.687296875,588.822,517.4652968749999Q646.078,497.64629687499996,684.6510000000001,459.212296875Q723.2239999999999,420.777296875,743.115,363.728296875Q752.369,337.183296875,757.5799999999999,306.608196875C757.838,305.091196875,758.081,303.645996875,758.308,302.272796875C758.821,299.175796875,759.259,296.445096875,759.6379999999999,294.082896875ZM698.712,473.222296875Q724.216,447.810296875,742.115,415.084296875Q742.6179999999999,414.164296875,743.115,413.238296875L743.115,517.4652968749999L638.5260000000001,517.4652968749999Q639.458,516.9682968750001,640.384,516.4652968749999Q673.208,498.635296875,698.712,473.222296875ZM642.467,516.4652968749999L742.115,516.4652968749999L742.115,417.155296875Q724.404,449.034296875,699.418,473.931296875Q674.734,498.526296875,643.2280000000001,516.043296875Q642.8489999999999,516.254296875,642.467,516.4652968749999Z" fill-rule="evenodd" fill="#3EAF7C" fill-opacity="1"/></g><g style="mix-blend-mode:passthrough" transform="matrix(-0.9659258723258972,-0.2588191330432892,0.2588191330432892,-0.9659258723258972,211.68779496794014,526.8956199857384)"><path d="M398.7954658203125,251.14884359375Q398.4004658203125,263.22918359375,397.4304658203125,274.74108359375Q388.46846582031253,381.13318359375,330.54346582031246,438.85118359374997Q272.6194658203125,496.56818359375,165.8454658203125,505.49618359375Q154.2978658203125,506.46118359375,142.1685458203125,506.85618359375Q141.4449628203125,506.88018359375,141.1551928203125,506.84918359375Q140.4876283203125,506.77718359375,140.0746018203125,506.37818359375Q139.6591858203125,505.97718359375,139.5669498203125,505.30218359375Q139.5274658203125,505.01318359375,139.5274658203125,504.27418359374997L139.5274658203125,251.09830359375Q139.5274658203125,250.37731359375,139.5655688203125,250.09492959375Q139.6545368203125,249.43557349375,140.0546058203125,249.03694159375Q140.4536346203125,248.63935059375,141.1127388203125,248.55105459375Q141.3954358203125,248.51318359375,142.11830582031251,248.51318359375L396.20846582031254,248.51318359375Q396.9494658203125,248.51318359375,397.2384658203125,248.55242859375Q397.9134658203125,248.64397659375,398.3144658203125,249.05647059375L398.3154658203125,249.05689059375Q398.3234658203125,249.06593059375,398.3314658203125,249.07454059375Q398.6194658203125,249.37921859375,398.7314658203125,249.81945359375Q398.7704658203125,249.97047959375,398.7884658203125,250.13748959375Q398.8194658203125,250.42700059375,398.7954658203125,251.14871359375L398.7954658203125,251.14884359375ZM397.7964658203125,251.11595359375Q397.4014658203125,263.17128359375,396.43446582031254,274.65708359375Q387.5054658203125,380.68218359375,329.8374658203125,438.14218359375Q272.1694658203125,495.60318359375003,165.7621658203125,504.49918359375Q154.2348658203125,505.46318359375,142.1360258203125,505.85718359375C141.3859058203125,505.88118359375,141.0106588203125,505.89218359375,140.7691378203125,505.65918359375C140.5276169183125,505.42518359375003,140.5274658203125,505.04218359375,140.5274658203125,504.27418359374997L140.5274658203125,251.09830359375C140.5274658203125,250.35107059375,140.5274658203125,249.97745559375,140.7604398203125,249.74531959375C140.9934148203125,249.51318359375,141.3683778203125,249.51318359375,142.11830582031251,249.51318359375L396.20846582031254,249.51318359375C396.9784658203125,249.51318359375,397.3634658203125,249.51333414875,397.5984658203125,249.75398559375C397.8324658203125,249.99463759375,397.8214658203125,250.36853459375,397.7964658203125,251.11595359375ZM375.8314658203125,270.32718359375Q375.3824658203125,276.09508359375,374.7844658203125,281.70578359374997Q364.9744658203125,373.69918359375004,315.0704658203125,423.42318359374997Q262.1214658203125,476.18318359374996,161.4129658203125,483.96718359375L161.4129658203125,270.32718359375L375.8314658203125,270.32718359375ZM376.8344658203125,270.32718359375Q369.00646582031254,371.09318359375,315.7764658203125,424.13218359375Q262.54546582031253,477.17118359375,161.4129658203125,484.97018359375Q160.9116658203125,485.00918359375,160.4129658203125,485.04618359375L160.4129658203125,269.32718359375L376.9114658203125,269.32718359375Q376.8734658203125,269.82808359375,376.8344658203125,270.32718359375ZM163.1202658203125,526.68118359375Q162.1732658203125,526.34918359375,162.1300658203125,525.55118359375Q162.0859658203125,524.73818359375,163.0217658203125,524.31318359375Q163.4108658203125,524.13718359375,164.1371658203125,523.95318359375Q165.3186658203125,523.65518359375,168.0198658203125,523.19418359375L174.2928658203125,522.17618359375L182.5134658203125,520.85018359375L186.8590658203125,520.12618359375Q217.4595658203125,514.9491835937499,244.0224658203125,505.75418359375Q301.0614658203125,486.01018359375,339.4724658203125,447.73718359375Q377.88146582031254,409.46618359375,397.6974658203125,352.63318359375Q406.9234658203125,326.17038359375,412.1214658203125,295.67408359374997L412.8484658203125,291.34638359375L412.8494658203125,291.34098359375L414.1784658203125,283.15648359375L414.1784658203125,283.15538359375L415.1994658203125,276.91298359375Q415.6634658203125,274.21408359375,415.9624658203125,273.03538359375Q416.1464658203125,272.31078359375,416.3244658203125,271.92258359375Q416.7504658203125,270.99078359375,417.5614658203125,271.03448359375Q418.3584658203125,271.07728359375,418.6914658203125,272.02138359375Q418.8344658203125,272.42528359375,418.9414658203125,273.14258359375Q419.1324658203125,274.42008359375,419.2564658203125,276.95878359375Q419.4854658203125,281.65528359375,419.5204658203125,291.82018359375L419.5274658203125,296.19328359375L419.5274658203125,524.92818359375Q419.5274658203125,525.64918359375,419.4894658203125,525.93118359375Q419.4004658203125,526.59018359375,419.0004658203125,526.98918359375Q418.6014658203125,527.38718359375,417.9424658203125,527.47518359375Q417.6594658203125,527.51318359375,416.9364658203125,527.51318359375L187.3776658203125,527.51318359375L182.9890658203125,527.5061835937499Q172.78736582031252,527.4711835937501,168.0726658203125,527.24318359375Q165.52616582031249,527.12018359375,164.2437658203125,526.9301835937499Q163.5247658203125,526.82318359375,163.1202658203125,526.68118359375ZM415.1654658203125,283.31678359375C415.5654658203125,280.82508359375,415.8984658203125,278.74338359375,416.1854658203125,277.07428359375C416.4774658203125,275.37618359375,416.7214658203125,274.10518359375,416.9364658203125,273.26418359375C416.9694658203125,273.13418359375,417.0024658203125,273.01458359375,417.0344658203125,272.90518359375C417.2054658203125,272.31628359375,417.3604658203125,272.02508359375,417.5084658203125,272.03298359375C417.6554658203125,272.04098359375,417.7844658203125,272.34558359375,417.8954658203125,272.94688359375C417.9164658203125,273.05978359375,417.9374658203125,273.18308359375,417.9564658203125,273.31688359375C418.3254658203125,275.82098359375,418.4864658203125,281.98848359375,418.5204658203125,291.82368359375C418.5254658203125,293.20798359375,418.5274658203125,294.66508359375,418.5274658203125,296.19488359375L418.5274658203125,524.92818359375C418.5274658203125,525.67518359375,418.5274658203125,526.0491835937501,418.2944658203125,526.28118359375C418.0614658203125,526.51318359375,417.6864658203125,526.51318359375,416.9364658203125,526.51318359375L187.3776658203125,526.51318359375C185.8423658203125,526.51318359375,184.3800658203125,526.51118359375,182.9906658203125,526.5061835937499C173.1299658203125,526.4721835937501,166.9427658203125,526.31218359375,164.4246658203125,525.94518359375C164.2866658203125,525.92518359375,164.1596658203125,525.90518359375,164.0436658203125,525.88318359375C163.4415658203125,525.77218359375,163.1365658203125,525.64418359375,163.1285658203125,525.4971835937499C163.1206658203125,525.35018359375,163.4124658203125,525.19618359375,164.0024658203125,525.02518359375C164.1149658203125,524.99318359375,164.2382658203125,524.95918359375,164.3723658203125,524.92518359375C165.2165658203125,524.7121835937501,166.4893658203125,524.47018359375,168.1881658203125,524.1801835937499C169.8632658203125,523.89418359375,171.9523658203125,523.56118359375,174.4530658203125,523.16318359375C176.8238658203125,522.78618359375,179.5643658203125,522.34918359375,182.6725658203125,521.83818359375C184.0507658203125,521.61118359375,185.5011658203125,521.37018359375,187.0236658203125,521.1121835937499Q217.7090658203125,515.92118359375,244.3494658203125,506.69918359375Q301.6054658203125,486.88018359374996,340.1784658203125,448.44618359375Q378.7514658203125,410.01118359375,398.6424658203125,352.96218359375Q407.8964658203125,326.41718359375,413.1074658203125,295.84208359375C413.3654658203125,294.32508359375,413.6084658203125,292.87988359375,413.8354658203125,291.50668359375C414.3484658203125,288.40968359375,414.7864658203125,285.67898359375,415.1654658203125,283.31678359375ZM354.2394658203125,462.45618359375Q379.7434658203125,437.04418359375,397.6424658203125,404.31818359375Q398.1454658203125,403.39818359375,398.6424658203125,402.47218359375L398.6424658203125,506.69918359375L294.0534658203125,506.69918359375Q294.98546582031247,506.20218359375,295.9114658203125,505.69918359375Q328.73546582031247,487.86918359375,354.2394658203125,462.45618359375ZM297.9944658203125,505.69918359375L397.6424658203125,505.69918359375L397.6424658203125,406.38918359375Q379.9314658203125,438.26818359375,354.9454658203125,463.16518359375Q330.26146582031254,487.76018359375,298.7554658203125,505.27718359375Q298.3764658203125,505.48818359375,297.9944658203125,505.69918359375Z" fill-rule="evenodd" fill="#3EAF7C" fill-opacity="1"/></g></g><g style="mix-blend-mode:passthrough"><path d="M212.0156,162L207.48438,162Q206.25,162,206.25,160.7812L206.25,116.9219Q206.25,115.7031,207.48438,115.7031L224.6094,115.7031Q229.875,115.7031,232.8281,118.625Q235.7812,121.5312,235.7812,126.8594L235.7812,134.3594Q235.7812,139.6094,232.8281,142.5625Q229.875,145.5156,224.6094,145.5156L214.1094,145.5156Q213.2344,145.5156,213.2344,146.2344L213.2344,160.7812Q213.2344,162,212.0156,162ZM214.0312,139.3125L223.6094,139.3125Q228.7188,139.3125,228.7188,133.9844L228.7188,127.1562Q228.7188,121.8281,223.6094,121.8281L214.0312,121.8281Q213.2344,121.8281,213.2344,122.5469L213.2344,138.5938Q213.2344,139.3125,214.0312,139.3125ZM249.2969,162L244.7656,162Q243.5312,162,243.5312,160.7812L243.5312,112.6094Q243.5312,111.3906,244.7656,111.3906L249.2969,111.3906Q250.5156,111.3906,250.5156,112.6094L250.5156,129.0938L250.8125,129.0938Q252.5312,125.2812,258.0781,125.2812L261.25,125.2812Q266.5,125.2812,269.3125,128.1719Q272.125,131.0469,272.125,136.4375L272.125,160.7812Q272.125,162,270.8281,162L266.2812,162Q265.0625,162,265.0625,160.7812L265.0625,136.7344Q265.0625,131.4062,259.8125,131.4062L256.4219,131.4062Q250.5156,131.4062,250.5156,137.5156L250.5156,160.7812Q250.5156,162,249.2969,162ZM280.8906,119.1562L280.8906,112.6094Q280.8906,111.4531,282.0469,111.4531L286.7344,111.4531Q287.875,111.4531,287.875,112.6094L287.875,119.1562Q287.875,120.3906,286.7344,120.3906L282.0469,120.3906Q280.8906,120.3906,280.8906,119.1562ZM280.8906,160.7812L280.8906,126.5Q280.8906,125.2812,282.0469,125.2812L286.6562,125.2812Q287.875,125.2812,287.875,126.5L287.875,160.7812Q287.875,161.5,287.625,161.75Q287.375,162,286.7344,162L282.125,162Q280.8906,162,280.8906,160.7812ZM310.922,160.2031L307.688,160.2031Q302.5,160.2031,299.7188,157.2969Q296.9531,154.375,296.9531,149.0469L296.9531,136.4375Q296.9531,131.1094,299.9062,128.2031Q302.859,125.2812,308.125,125.2812L324.25,125.2812Q325.547,125.2812,325.547,126.5L325.547,162.1406Q325.547,167.4062,322.547,170.3125Q319.562,173.2344,314.312,173.2344L300.7812,173.2344Q299.5469,173.2344,299.5469,172.0781L299.5469,168.3438Q299.5469,167.1094,300.7812,167.1094L313.234,167.1094Q318.484,167.1094,318.484,161.7812L318.484,156.3125L318.203,156.3125Q316.406,160.2031,310.922,160.2031ZM318.484,147.9531L318.484,132.125Q318.484,131.4062,317.703,131.4062L309.125,131.4062Q304.016,131.4062,304.016,136.7344L304.016,148.6875Q304.016,154.0156,309.125,154.0156L312.578,154.0156Q318.484,154.0156,318.484,147.9531ZM340.297,162L335.76599999999996,162Q334.531,162,334.531,160.7812L334.531,126.5Q334.531,125.2812,335.76599999999996,125.2812L340.297,125.2812Q341.51599999999996,125.2812,341.51599999999996,126.5L341.51599999999996,129.2344L341.812,129.2344Q342.531,127.4375,344.578,126.3594Q346.625,125.2812,349.156,125.2812L351.812,125.2812Q353.047,125.2812,353.047,126.5L353.047,130.25Q353.047,131.6094,351.812,131.4062L347.5,131.4062Q341.51599999999996,131.4062,341.51599999999996,137.9531L341.51599999999996,160.7812Q341.51599999999996,162,340.297,162ZM358.89099999999996,119.1562L358.89099999999996,112.6094Q358.89099999999996,111.4531,360.047,111.4531L364.73400000000004,111.4531Q365.875,111.4531,365.875,112.6094L365.875,119.1562Q365.875,120.3906,364.73400000000004,120.3906L360.047,120.3906Q358.89099999999996,120.3906,358.89099999999996,119.1562ZM358.89099999999996,160.7812L358.89099999999996,126.5Q358.89099999999996,125.2812,360.047,125.2812L364.656,125.2812Q365.875,125.2812,365.875,126.5L365.875,160.7812Q365.875,161.5,365.625,161.75Q365.375,162,364.73400000000004,162L360.125,162Q358.89099999999996,162,358.89099999999996,160.7812ZM381.297,162L376.76599999999996,162Q375.531,162,375.531,160.7812L375.531,126.5Q375.531,125.2812,376.76599999999996,125.2812L381.297,125.2812Q382.51599999999996,125.2812,382.51599999999996,126.5L382.51599999999996,129.0938L382.812,129.0938Q384.89099999999996,125.2812,390.438,125.2812L392.812,125.2812Q399.078,125.2812,401.75,130.0312Q402.89099999999996,127.7344,405.26599999999996,126.5156Q407.64099999999996,125.2812,410.39099999999996,125.2812L412.688,125.2812Q417.938,125.2812,420.703,128.2031Q423.48400000000004,131.1094,423.48400000000004,136.4375L423.48400000000004,160.7812Q423.48400000000004,162,422.26599999999996,162L417.656,162Q416.438,162,416.438,160.7812L416.438,136.7344Q416.438,131.4062,411.25,131.4062L409.156,131.4062Q403.188,131.4062,403.188,137.6562L403.188,160.7812Q403.188,162,401.89099999999996,162L397.35900000000004,162Q396.125,162,396.125,160.7812L396.125,136.7344Q396.125,131.4062,390.938,131.4062L388.422,131.4062Q382.51599999999996,131.4062,382.51599999999996,137.5156L382.51599999999996,160.7812Q382.51599999999996,162,381.297,162ZM458.031,155.875L468.188,155.875Q473.375,155.875,473.375,150.5469L473.375,127.1562Q473.375,121.8281,468.188,121.8281L458.031,121.8281Q457.234,121.8281,457.234,122.5469L457.234,155.0938Q457.234,155.875,458.031,155.875ZM450.25,160.7812L450.25,116.9219Q450.25,115.7031,451.48400000000004,115.7031L469.188,115.7031Q474.453,115.7031,477.438,118.625Q480.422,121.5312,480.422,126.8594L480.422,150.8438Q480.422,156.0938,477.438,159.0469Q474.453,162,469.188,162L451.48400000000004,162Q450.25,162,450.25,160.7812ZM506.312,162L499.969,162Q494.641,162,491.719,159.0469Q488.812,156.0938,488.812,150.8438L488.812,136.4375Q488.812,131.1094,491.719,128.2031Q494.641,125.2812,499.969,125.2812L506.312,125.2812Q511.562,125.2812,514.547,128.2031Q517.547,131.1094,517.547,136.4375L517.547,150.8438Q517.547,156.0938,514.547,159.0469Q511.562,162,506.312,162ZM500.984,155.875L505.375,155.875Q510.562,155.875,510.562,150.625L510.562,136.6562Q510.562,131.4062,505.375,131.4062L500.984,131.4062Q498.25,131.4062,497.016,132.6719Q495.797,133.9219,495.797,136.6562L495.797,150.625Q495.797,153.3594,497.016,154.625Q498.25,155.875,500.984,155.875ZM547.8589999999999,157.1094L547.8589999999999,160.8438Q547.8589999999999,162,546.562,162L535.969,162Q530.6410000000001,162,527.719,159.0469Q524.812,156.0938,524.812,150.8438L524.812,136.4375Q524.812,131.1094,527.719,128.2031Q530.6410000000001,125.2812,535.969,125.2812L546.562,125.2812Q547.8589999999999,125.2812,547.8589999999999,126.5L547.8589999999999,130.25Q547.8589999999999,131.4062,546.562,131.4062L536.9839999999999,131.4062Q531.797,131.4062,531.797,136.7344L531.797,150.5469Q531.797,155.875,536.9839999999999,155.875L546.562,155.875Q547.8589999999999,155.875,547.8589999999999,157.1094ZM567.6410000000001,162L554.3910000000001,162Q553.172,162,553.172,160.7812L553.172,157.25Q553.172,156.0938,554.3910000000001,156.0938L566.4839999999999,156.0938Q571.172,156.0938,571.172,152.8594L571.172,151.9844Q571.172,149.1094,567.781,147.5938L559.938,143.8594Q556.2660000000001,142.125,554.6089999999999,140.0469Q552.953,137.9531,552.953,134.5625Q552.953,125.2812,563.25,125.2812L575.203,125.2812Q576.3589999999999,125.2812,576.3589999999999,126.5L576.3589999999999,130.0312Q576.3589999999999,131.25,575.203,131.25L564.688,131.25Q562.531,131.25,561.375,132.0156Q560.219,132.7656,560.219,133.9844L560.219,134.7812Q560.219,137.0938,563.8910000000001,138.8125L571.812,142.8438Q575.562,144.5,576.969,146.7812Q578.375,149.0469,578.375,152.6406Q578.375,162,567.6410000000001,162Z" fill="#3EAF7C" fill-opacity="1"/></g></g></svg>