<svg xmlns="http://www.w3.org/2000/svg" xmlns:xlink="http://www.w3.org/1999/xlink" fill="none" version="1.1" width="902" height="415" viewBox="0 0 902 415"><defs><filter id="master_svg0_377_01261" filterUnits="objectBoundingBox" color-interpolation-filters="sRGB" x="-56" y="-56" width="902" height="415"><feFlood flood-opacity="0" result="BackgroundImageFix"/><feColorMatrix in="SourceAlpha" type="matrix" values="0 0 0 0 0 0 0 0 0 0 0 0 0 0 0 0 0 0 127 0"/><feOffset dy="4" dx="4"/><feGaussianBlur stdDeviation="15"/><feColorMatrix type="matrix" values="0 0 0 0 0.24313725531101227 0 0 0 0 0.686274528503418 0 0 0 0 0.48627451062202454 0 0 0 0.20000000298023224 0"/><feBlend mode="normal" in2="BackgroundImageFix" result="effect1_dropShadow"/><feBlend mode="normal" in="SourceGraphic" in2="effect1_dropShadow" result="shape"/></filter><mask id="master_svg1_377_03942"><g style="mix-blend-mode:passthrough"><rect x="56" y="56" width="782" height="295" rx="25" fill="#FFFFFF" fill-opacity="1"/></g></mask></defs><g style="mix-blend-mode:passthrough" filter="url(#master_svg0_377_01261)"><g style="mix-blend-mode:passthrough"><rect x="56" y="56" width="782" height="295" rx="25" fill="#1D1E1F" fill-opacity="1"/></g><g style="mix-blend-mode:passthrough" mask="url(#master_svg1_377_03942)"><g style="opacity:0.15000000596046448;mix-blend-mode:passthrough" transform="matrix(0.9161046743392944,0.40093907713890076,-0.412584513425827,0.9109193086624146,-126.223146576609,-258.20503980659123)"><rect x="551.12939453125" y="-418" width="451.4347839355469" height="446.2829895019531" rx="32" fill="#3EAF7C" fill-opacity="1"/></g><g style="opacity:0.15000000596046448;mix-blend-mode:passthrough" transform="matrix(0.9905745387077332,-0.13685080409049988,0.1415332406759262,0.9899518489837646,-45.44050723595865,-9.42578838521149)"><rect x="-92" y="314.93212890625" width="452.5516052246094" height="445.1505432128906" rx="32" fill="#3EAF7C" fill-opacity="1"/></g><g style="mix-blend-mode:passthrough" transform="matrix(0.9848077893257141,0.1736481934785843,-0.1736481934785843,0.9848077893257141,-18.99898180282071,-106.8411708307176)"><path d="M859.3685859375,-160.3644620703125Q858.9735859375,-148.2841220703125,858.0035859375,-136.7722220703125Q849.0415859375,-30.380122070312495,791.1165859375,27.337877929687494Q733.1925859375,85.0548779296875,626.4185859375,93.9828779296875Q614.8709859375,94.94787792968748,602.7416659375,95.34287792968752Q602.0180829375,95.36687792968752,601.7283129375,95.33587792968751Q601.0607484375,95.26387792968751,600.6477219375,94.86487792968751Q600.2323059375,94.4638779296875,600.1400699375,93.78887792968749Q600.1005859375,93.4998779296875,600.1005859375,92.7608779296875L600.1005859375,-160.4150020703125Q600.1005859375,-161.1359920703125,600.1386889375,-161.4183760703125Q600.2276569375,-162.0777321703125,600.6277259375,-162.4763640703125Q601.0267547375,-162.8739550703125,601.6858589375,-162.9622510703125Q601.9685559375,-163.0001220703125,602.6914259375,-163.0001220703125L856.7815859375,-163.0001220703125Q857.5225859375,-163.0001220703125,857.8115859375,-162.9608770703125Q858.4865859375,-162.8693290703125,858.8875859375,-162.4568350703125L858.8885859375,-162.4564150703125Q858.8965859375,-162.4473750703125,858.9045859375,-162.4387650703125Q859.1925859375,-162.1340870703125,859.3045859375,-161.6938520703125Q859.3435859374999,-161.5428260703125,859.3615859375,-161.3758160703125Q859.3925859374999,-161.0863050703125,859.3685859375,-160.3645920703125L859.3685859375,-160.3644620703125ZM858.3695859375,-160.3973520703125Q857.9745859375,-148.3420220703125,857.0075859375,-136.8562220703125Q848.0785859375001,-30.83112207031249,790.4105859375,26.62887792968749Q732.7425859375,84.0898779296875,626.3352859375,92.98587792968749Q614.8079859375,93.94987792968749,602.7091459375,94.3438779296875C601.9590259375,94.3678779296875,601.5837789375,94.37887792968752,601.3422579375,94.14587792968752C601.1007370355,93.9118779296875,601.1005859375,93.5288779296875,601.1005859375,92.7608779296875L601.1005859375,-160.4150020703125C601.1005859375,-161.1622350703125,601.1005859375,-161.5358500703125,601.3335599375,-161.7679860703125C601.5665349375,-162.0001220703125,601.9414979375,-162.0001220703125,602.6914259375,-162.0001220703125L856.7815859375,-162.0001220703125C857.5515859375,-162.0001220703125,857.9365859375,-161.9999715153125,858.1715859375,-161.7593200703125C858.4055859375001,-161.5186680703125,858.3945859375,-161.1447710703125,858.3695859375,-160.3973520703125ZM836.4045859375,-141.1861220703125Q835.9555859375,-135.4182220703125,835.3575859375001,-129.8075220703125Q825.5475859375,-37.81412207031249,775.6435859375,11.909877929687497Q722.6945859375,64.66987792968749,621.9860859375,72.45387792968751L621.9860859375,-141.1861220703125L836.4045859375,-141.1861220703125ZM837.4075859375,-141.1861220703125Q829.5795859375,-40.4201220703125,776.3495859375,12.6188779296875Q723.1185859375,65.65787792968749,621.9860859375,73.4568779296875Q621.4847859375,73.49587792968751,620.9860859375,73.53287792968749L620.9860859375,-142.1861220703125L837.4845859375,-142.1861220703125Q837.4465859375,-141.6852220703125,837.4075859375,-141.1861220703125ZM623.6933859375,115.1678779296875Q622.7463859375,114.83587792968751,622.7031859375,114.03787792968751Q622.6590859375,113.22487792968752,623.5948859375,112.79987792968751Q623.9839859375,112.62387792968752,624.7102859375,112.4398779296875Q625.8917859375,112.1418779296875,628.5929859375,111.68087792968748L634.8659859375,110.66287792968751L643.0865859375,109.33687792968749L647.4321859375,108.6128779296875Q678.0326859375,103.43587792968748,704.5955859375,94.24087792968749Q761.6345859375,74.49687792968751,800.0455859374999,36.22387792968749Q838.4545859375,-2.047122070312497,858.2705859375001,-58.880122070312495Q867.4965859375,-85.3429220703125,872.6945859375,-115.8392220703125L873.4215859375,-120.1669220703125L873.4225859375,-120.1723220703125L874.7515859375001,-128.3568220703125L874.7515859375001,-128.3579220703125L875.7725859375,-134.6003220703125Q876.2365859375,-137.2992220703125,876.5355859375,-138.4779220703125Q876.7195859375,-139.2025220703125,876.8975859375,-139.5907220703125Q877.3235859375,-140.5225220703125,878.1345859375,-140.4788220703125Q878.9315859375,-140.4360220703125,879.2645859375,-139.4919220703125Q879.4075859375,-139.0880220703125,879.5145859375,-138.3707220703125Q879.7055859375,-137.0932220703125,879.8295859375,-134.5545220703125Q880.0585859375001,-129.8580220703125,880.0935859374999,-119.6931220703125L880.1005859375,-115.32002207031249L880.1005859375,113.41487792968752Q880.1005859375,114.13587792968752,880.0625859375,114.4178779296875Q879.9735859375,115.0768779296875,879.5735859375,115.4758779296875Q879.1745859375001,115.87387792968752,878.5155859375,115.96187792968749Q878.2325859375001,115.9998779296875,877.5095859375,115.9998779296875L647.9507859375,115.9998779296875L643.5621859375,115.9928779296875Q633.3604859375,115.95787792968753,628.6457859375,115.72987792968752Q626.0992859375,115.60687792968753,624.8168859375,115.41687792968747Q624.0978859375,115.3098779296875,623.6933859375,115.1678779296875ZM875.7385859374999,-128.19652207031248C876.1385859375,-130.6882220703125,876.4715859375,-132.7699220703125,876.7585859375,-134.4390220703125C877.0505859375,-136.1371220703125,877.2945859375,-137.40812207031252,877.5095859375,-138.2491220703125C877.5425859375,-138.3791220703125,877.5755859375,-138.4987220703125,877.6075859375001,-138.6081220703125C877.7785859375,-139.1970220703125,877.9335859375001,-139.4882220703125,878.0815859375,-139.4803220703125C878.2285859374999,-139.4723220703125,878.3575859375001,-139.1677220703125,878.4685859374999,-138.5664220703125C878.4895859375,-138.4535220703125,878.5105859375001,-138.33022207031252,878.5295859375,-138.1964220703125C878.8985859375,-135.6923220703125,879.0595859375001,-129.5248220703125,879.0935859374999,-119.68962207031251C879.0985859375,-118.3053220703125,879.1005859375,-116.8482220703125,879.1005859375,-115.3184220703125L879.1005859375,113.41487792968752C879.1005859375,114.16187792968748,879.1005859375,114.5358779296875,878.8675859375,114.76787792968747C878.6345859375,114.9998779296875,878.2595859375,114.9998779296875,877.5095859375,114.9998779296875L647.9507859375,114.9998779296875C646.4154859375,114.9998779296875,644.9531859375,114.99787792968749,643.5637859375,114.9928779296875C633.7030859375,114.9588779296875,627.5158859375,114.79887792968748,624.9977859375,114.43187792968752C624.8597859375,114.41187792968748,624.7327859375,114.3918779296875,624.6167859375,114.3698779296875C624.0146859375,114.25887792968751,623.7096859375,114.13087792968747,623.7016859375,113.98387792968748C623.6937859375,113.83687792968749,623.9855859375,113.68287792968749,624.5755859375,113.5118779296875C624.6880859375,113.47987792968752,624.8113859375,113.44587792968753,624.9454859375,113.41187792968748C625.7896859375,113.19887792968751,627.0624859375,112.9568779296875,628.7612859375,112.66687792968747C630.4363859375,112.38087792968747,632.5254859375,112.0478779296875,635.0261859375,111.64987792968748C637.3969859375,111.27287792968752,640.1374859375001,110.83587792968751,643.2456859375,110.32487792968749C644.6238859375,110.09787792968751,646.0742859375,109.85687792968753,647.5967859375,109.59887792968749Q678.2821859375,104.40787792968752,704.9225859375,95.18587792968748Q762.1785859375,75.36687792968749,800.7515859375001,36.93287792968749Q839.3245859374999,-1.5021220703125095,859.2155859375,-58.5511220703125Q868.4695859375,-85.0961220703125,873.6805859374999,-115.6712220703125C873.9385859375,-117.18822207031249,874.1815859375,-118.63342207031249,874.4085859375,-120.0066220703125C874.9215859375,-123.1036220703125,875.3595859375,-125.83432207031251,875.7385859374999,-128.19652207031248ZM814.8125859375,50.94287792968751Q840.3165859375,25.530877929687506,858.2155859375,-7.195122070312493Q858.7185859374999,-8.115122070312509,859.2155859375,-9.041122070312497L859.2155859375,95.18587792968748L754.6265859375001,95.18587792968748Q755.5585859375,94.68887792968752,756.4845859375,94.18587792968748Q789.3085859375,76.3558779296875,814.8125859375,50.94287792968751ZM758.5675859375,94.18587792968748L858.2155859375,94.18587792968748L858.2155859375,-5.124122070312495Q840.5045859375,26.754877929687495,815.5185859375,51.65187792968749Q790.8345859375,76.24687792968751,759.3285859375001,93.76387792968751Q758.9495859374999,93.9748779296875,758.5675859375,94.18587792968748Z" fill-rule="evenodd" fill="#3EAF7C" fill-opacity="1"/></g><g style="mix-blend-mode:passthrough" transform="matrix(0.9563049077987671,-0.2923717498779297,0.2923717498779297,0.9563049077987671,-68.83208659663796,171.9929697222542)"><path d="M799.268,317.914956875Q798.873,329.995296875,797.903,341.507196875Q788.941,447.899296875,731.016,505.61729687499997Q673.092,563.3342968750001,566.318,572.262296875Q554.7704,573.227296875,542.64108,573.6222968750001Q541.917497,573.646296875,541.627727,573.615296875Q540.9601625,573.543296875,540.547136,573.144296875Q540.13172,572.7432968749999,540.039484,572.068296875Q540,571.779296875,540,571.040296875L540,317.864416875Q540,317.143426875,540.038103,316.861042875Q540.127071,316.201686775,540.52714,315.803054875Q540.9261688,315.405463875,541.585273,315.317167875Q541.86797,315.279296875,542.59084,315.279296875L796.681,315.279296875Q797.422,315.279296875,797.711,315.318541875Q798.386,315.410089875,798.787,315.822583875L798.788,315.823003875Q798.796,315.832043875,798.804,315.840653875Q799.092,316.145331875,799.204,316.585566875Q799.2429999999999,316.736592875,799.261,316.903602875Q799.2919999999999,317.193113875,799.268,317.914826875L799.268,317.914956875ZM798.269,317.882066875Q797.874,329.937396875,796.907,341.423196875Q787.9780000000001,447.448296875,730.31,504.908296875Q672.642,562.369296875,566.2347,571.265296875Q554.7074,572.229296875,542.60856,572.623296875C541.85844,572.6472968749999,541.483193,572.658296875,541.241672,572.425296875C541.000151098,572.191296875,541,571.808296875,541,571.040296875L541,317.864416875C541,317.117183875,541,316.743568875,541.232974,316.511432875C541.465949,316.279296875,541.840912,316.279296875,542.59084,316.279296875L796.681,316.279296875C797.451,316.279296875,797.836,316.27944743,798.071,316.520098875C798.3050000000001,316.760750875,798.294,317.134647875,798.269,317.882066875ZM776.304,337.093296875Q775.855,342.861196875,775.2570000000001,348.47189687499997Q765.447,440.46529687500004,715.543,490.18929687499997Q662.594,542.949296875,561.8855,550.733296875L561.8855,337.093296875L776.304,337.093296875ZM777.307,337.093296875Q769.479,437.859296875,716.249,490.898296875Q663.018,543.937296875,561.8855,551.736296875Q561.3842,551.775296875,560.8855,551.812296875L560.8855,336.093296875L777.384,336.093296875Q777.346,336.594196875,777.307,337.093296875ZM563.5928,593.447296875Q562.6458,593.115296875,562.6026,592.317296875Q562.5585,591.504296875,563.4943,591.079296875Q563.8834,590.903296875,564.6097,590.719296875Q565.7912,590.421296875,568.4924,589.960296875L574.7654,588.942296875L582.986,587.616296875L587.3316,586.892296875Q617.9321,581.7152968749999,644.495,572.520296875Q701.534,552.7762968750001,739.9449999999999,514.5032968749999Q778.354,476.232296875,798.1700000000001,419.399296875Q807.396,392.936496875,812.594,362.44019687499997L813.321,358.112496875L813.322,358.107096875L814.6510000000001,349.922596875L814.6510000000001,349.921496875L815.672,343.679096875Q816.136,340.980196875,816.435,339.801496875Q816.619,339.076896875,816.797,338.688696875Q817.223,337.756896875,818.034,337.800596875Q818.831,337.843396875,819.164,338.787496875Q819.307,339.191396875,819.414,339.908696875Q819.605,341.186196875,819.729,343.724896875Q819.9580000000001,348.421396875,819.9929999999999,358.586296875L820,362.959396875L820,591.694296875Q820,592.415296875,819.962,592.697296875Q819.873,593.356296875,819.473,593.755296875Q819.0740000000001,594.153296875,818.415,594.241296875Q818.1320000000001,594.279296875,817.409,594.279296875L587.8502,594.279296875L583.4616,594.2722968749999Q573.2599,594.2372968750001,568.5452,594.009296875Q565.9987,593.886296875,564.7163,593.6962968749999Q563.9973,593.589296875,563.5928,593.447296875ZM815.6379999999999,350.082896875C816.038,347.591196875,816.371,345.509496875,816.658,343.840396875C816.95,342.142296875,817.194,340.871296875,817.409,340.030296875C817.442,339.900296875,817.475,339.780696875,817.5070000000001,339.671296875C817.678,339.082396875,817.8330000000001,338.791196875,817.981,338.799096875C818.1279999999999,338.807096875,818.2570000000001,339.111696875,818.3679999999999,339.712996875C818.389,339.825896875,818.4100000000001,339.949196875,818.429,340.082996875C818.798,342.587096875,818.9590000000001,348.754596875,818.9929999999999,358.589796875C818.998,359.974096875,819,361.431196875,819,362.960996875L819,591.694296875C819,592.441296875,819,592.8152968750001,818.767,593.047296875C818.534,593.279296875,818.159,593.279296875,817.409,593.279296875L587.8502,593.279296875C586.3149,593.279296875,584.8526,593.277296875,583.4632,593.2722968749999C573.6025,593.2382968750001,567.4153,593.078296875,564.8972,592.711296875C564.7592,592.691296875,564.6322,592.671296875,564.5162,592.649296875C563.9141,592.538296875,563.6091,592.410296875,563.6011,592.2632968749999C563.5932,592.116296875,563.885,591.962296875,564.475,591.791296875C564.5875,591.759296875,564.7108,591.725296875,564.8449,591.691296875C565.6891,591.4782968750001,566.9619,591.236296875,568.6607,590.9462968749999C570.3358,590.660296875,572.4249,590.327296875,574.9256,589.929296875C577.2964,589.552296875,580.0369000000001,589.115296875,583.1451,588.604296875C584.5233,588.377296875,585.9737,588.136296875,587.4962,587.8782968749999Q618.1816,582.687296875,644.822,573.4652968749999Q702.078,553.646296875,740.6510000000001,515.212296875Q779.2239999999999,476.777296875,799.115,419.728296875Q808.369,393.183296875,813.5799999999999,362.608196875C813.838,361.091196875,814.081,359.645996875,814.308,358.272796875C814.821,355.175796875,815.259,352.445096875,815.6379999999999,350.082896875ZM754.712,529.222296875Q780.216,503.810296875,798.115,471.084296875Q798.6179999999999,470.164296875,799.115,469.238296875L799.115,573.4652968749999L694.5260000000001,573.4652968749999Q695.458,572.9682968750001,696.384,572.4652968749999Q729.208,554.635296875,754.712,529.222296875ZM698.467,572.4652968749999L798.115,572.4652968749999L798.115,473.155296875Q780.404,505.034296875,755.418,529.931296875Q730.734,554.5262968750001,699.2280000000001,572.043296875Q698.8489999999999,572.254296875,698.467,572.4652968749999Z" fill-rule="evenodd" fill="#3EAF7C" fill-opacity="1"/></g><g style="mix-blend-mode:passthrough" transform="matrix(-0.9659258723258972,-0.2588191330432892,0.2588191330432892,-0.9659258723258972,307.2857723677662,651.4813402864129)"><path d="M454.7954658203125,307.14884359375Q454.4004658203125,319.22918359375,453.4304658203125,330.74108359375Q444.46846582031253,437.13318359375,386.54346582031246,494.85118359374997Q328.6194658203125,552.5681835937501,221.8454658203125,561.49618359375Q210.2978658203125,562.46118359375,198.1685458203125,562.8561835937501Q197.4449628203125,562.88018359375,197.1551928203125,562.84918359375Q196.4876283203125,562.77718359375,196.0746018203125,562.37818359375Q195.6591858203125,561.9771835937499,195.5669498203125,561.30218359375Q195.5274658203125,561.01318359375,195.5274658203125,560.27418359375L195.5274658203125,307.09830359375Q195.5274658203125,306.37731359375,195.5655688203125,306.09492959375Q195.6545368203125,305.43557349375,196.0546058203125,305.03694159375Q196.4536346203125,304.63935059375,197.1127388203125,304.55105459375Q197.3954358203125,304.51318359375,198.11830582031251,304.51318359375L452.20846582031254,304.51318359375Q452.9494658203125,304.51318359375,453.2384658203125,304.55242859375Q453.9134658203125,304.64397659375,454.3144658203125,305.05647059375L454.3154658203125,305.05689059375Q454.3234658203125,305.06593059375,454.3314658203125,305.07454059375Q454.6194658203125,305.37921859375,454.7314658203125,305.81945359375Q454.7704658203125,305.97047959375,454.7884658203125,306.13748959375Q454.8194658203125,306.42700059375,454.7954658203125,307.14871359375L454.7954658203125,307.14884359375ZM453.7964658203125,307.11595359375Q453.4014658203125,319.17128359375,452.43446582031254,330.65708359375Q443.5054658203125,436.68218359375,385.8374658203125,494.14218359375Q328.1694658203125,551.60318359375,221.7621658203125,560.49918359375Q210.2348658203125,561.46318359375,198.1360258203125,561.85718359375C197.3859058203125,561.8811835937499,197.0106588203125,561.89218359375,196.7691378203125,561.65918359375C196.5276169183125,561.42518359375,196.5274658203125,561.04218359375,196.5274658203125,560.27418359375L196.5274658203125,307.09830359375C196.5274658203125,306.35107059375,196.5274658203125,305.97745559375,196.7604398203125,305.74531959375C196.9934148203125,305.51318359375,197.3683778203125,305.51318359375,198.11830582031251,305.51318359375L452.20846582031254,305.51318359375C452.9784658203125,305.51318359375,453.3634658203125,305.51333414875,453.5984658203125,305.75398559375C453.8324658203125,305.99463759375,453.8214658203125,306.36853459375,453.7964658203125,307.11595359375ZM431.8314658203125,326.32718359375Q431.3824658203125,332.09508359375,430.7844658203125,337.70578359374997Q420.9744658203125,429.69918359375004,371.0704658203125,479.42318359374997Q318.1214658203125,532.18318359375,217.4129658203125,539.96718359375L217.4129658203125,326.32718359375L431.8314658203125,326.32718359375ZM432.8344658203125,326.32718359375Q425.00646582031254,427.09318359375,371.7764658203125,480.13218359375Q318.54546582031253,533.17118359375,217.4129658203125,540.97018359375Q216.9116658203125,541.00918359375,216.4129658203125,541.04618359375L216.4129658203125,325.32718359375L432.9114658203125,325.32718359375Q432.8734658203125,325.82808359375,432.8344658203125,326.32718359375ZM219.1202658203125,582.68118359375Q218.1732658203125,582.34918359375,218.1300658203125,581.55118359375Q218.0859658203125,580.73818359375,219.0217658203125,580.31318359375Q219.4108658203125,580.13718359375,220.1371658203125,579.95318359375Q221.3186658203125,579.65518359375,224.0198658203125,579.19418359375L230.2928658203125,578.17618359375L238.5134658203125,576.85018359375L242.8590658203125,576.12618359375Q273.4595658203125,570.9491835937499,300.0224658203125,561.75418359375Q357.0614658203125,542.0101835937501,395.4724658203125,503.73718359375Q433.88146582031254,465.46618359375,453.6974658203125,408.63318359375Q462.9234658203125,382.17038359375,468.1214658203125,351.67408359374997L468.8484658203125,347.34638359375L468.8494658203125,347.34098359375L470.1784658203125,339.15648359375L470.1784658203125,339.15538359375L471.1994658203125,332.91298359375Q471.6634658203125,330.21408359375,471.9624658203125,329.03538359375Q472.1464658203125,328.31078359375,472.3244658203125,327.92258359375Q472.7504658203125,326.99078359375,473.5614658203125,327.03448359375Q474.3584658203125,327.07728359375,474.6914658203125,328.02138359375Q474.8344658203125,328.42528359375,474.9414658203125,329.14258359375Q475.1324658203125,330.42008359375,475.2564658203125,332.95878359375Q475.4854658203125,337.65528359375,475.5204658203125,347.82018359375L475.5274658203125,352.19328359375L475.5274658203125,580.92818359375Q475.5274658203125,581.64918359375,475.4894658203125,581.93118359375Q475.4004658203125,582.59018359375,475.0004658203125,582.98918359375Q474.6014658203125,583.38718359375,473.9424658203125,583.47518359375Q473.6594658203125,583.51318359375,472.9364658203125,583.51318359375L243.3776658203125,583.51318359375L238.9890658203125,583.5061835937499Q228.78736582031252,583.4711835937501,224.0726658203125,583.24318359375Q221.52616582031249,583.12018359375,220.2437658203125,582.9301835937499Q219.5247658203125,582.82318359375,219.1202658203125,582.68118359375ZM471.1654658203125,339.31678359375C471.5654658203125,336.82508359375,471.8984658203125,334.74338359375,472.1854658203125,333.07428359375C472.4774658203125,331.37618359375,472.7214658203125,330.10518359375,472.9364658203125,329.26418359375C472.9694658203125,329.13418359375,473.0024658203125,329.01458359375,473.0344658203125,328.90518359375C473.2054658203125,328.31628359375,473.3604658203125,328.02508359375,473.5084658203125,328.03298359375C473.6554658203125,328.04098359375,473.7844658203125,328.34558359375,473.8954658203125,328.94688359375C473.9164658203125,329.05978359375,473.9374658203125,329.18308359375,473.9564658203125,329.31688359375C474.3254658203125,331.82098359375,474.4864658203125,337.98848359375,474.5204658203125,347.82368359375C474.5254658203125,349.20798359375,474.5274658203125,350.66508359375,474.5274658203125,352.19488359375L474.5274658203125,580.92818359375C474.5274658203125,581.67518359375,474.5274658203125,582.0491835937501,474.2944658203125,582.28118359375C474.0614658203125,582.51318359375,473.6864658203125,582.51318359375,472.9364658203125,582.51318359375L243.3776658203125,582.51318359375C241.8423658203125,582.51318359375,240.3800658203125,582.51118359375,238.9906658203125,582.5061835937499C229.1299658203125,582.4721835937501,222.9427658203125,582.31218359375,220.4246658203125,581.94518359375C220.2866658203125,581.92518359375,220.1596658203125,581.90518359375,220.0436658203125,581.88318359375C219.4415658203125,581.77218359375,219.1365658203125,581.64418359375,219.1285658203125,581.4971835937499C219.1206658203125,581.35018359375,219.4124658203125,581.19618359375,220.0024658203125,581.02518359375C220.1149658203125,580.99318359375,220.2382658203125,580.95918359375,220.3723658203125,580.92518359375C221.2165658203125,580.7121835937501,222.4893658203125,580.47018359375,224.1881658203125,580.1801835937499C225.8632658203125,579.89418359375,227.9523658203125,579.56118359375,230.4530658203125,579.16318359375C232.8238658203125,578.78618359375,235.5643658203125,578.34918359375,238.6725658203125,577.83818359375C240.0507658203125,577.61118359375,241.5011658203125,577.37018359375,243.0236658203125,577.1121835937499Q273.7090658203125,571.92118359375,300.3494658203125,562.6991835937499Q357.6054658203125,542.88018359375,396.1784658203125,504.44618359375Q434.7514658203125,466.01118359375,454.6424658203125,408.96218359375Q463.8964658203125,382.41718359375,469.1074658203125,351.84208359375C469.3654658203125,350.32508359375,469.6084658203125,348.87988359375,469.8354658203125,347.50668359375C470.3484658203125,344.40968359375,470.7864658203125,341.67898359375,471.1654658203125,339.31678359375ZM410.2394658203125,518.45618359375Q435.7434658203125,493.04418359375,453.6424658203125,460.31818359375Q454.1454658203125,459.39818359375,454.6424658203125,458.47218359375L454.6424658203125,562.6991835937499L350.0534658203125,562.6991835937499Q350.98546582031247,562.2021835937501,351.9114658203125,561.6991835937499Q384.73546582031247,543.86918359375,410.2394658203125,518.45618359375ZM353.9944658203125,561.6991835937499L453.6424658203125,561.6991835937499L453.6424658203125,462.38918359375Q435.9314658203125,494.26818359375,410.9454658203125,519.16518359375Q386.26146582031254,543.7601835937501,354.7554658203125,561.27718359375Q354.3764658203125,561.48818359375,353.9944658203125,561.6991835937499Z" fill-rule="evenodd" fill="#3EAF7C" fill-opacity="1"/></g></g><g style="mix-blend-mode:passthrough"><path d="M268.0156,218L263.48438,218Q262.25,218,262.25,216.7812L262.25,172.9219Q262.25,171.7031,263.48438,171.7031L280.6094,171.7031Q285.875,171.7031,288.8281,174.625Q291.7812,177.5312,291.7812,182.8594L291.7812,190.3594Q291.7812,195.6094,288.8281,198.5625Q285.875,201.5156,280.6094,201.5156L270.1094,201.5156Q269.2344,201.5156,269.2344,202.2344L269.2344,216.7812Q269.2344,218,268.0156,218ZM270.0312,195.3125L279.6094,195.3125Q284.7188,195.3125,284.7188,189.9844L284.7188,183.1562Q284.7188,177.8281,279.6094,177.8281L270.0312,177.8281Q269.2344,177.8281,269.2344,178.5469L269.2344,194.5938Q269.2344,195.3125,270.0312,195.3125ZM305.2969,218L300.7656,218Q299.5312,218,299.5312,216.7812L299.5312,168.6094Q299.5312,167.3906,300.7656,167.3906L305.2969,167.3906Q306.5156,167.3906,306.5156,168.6094L306.5156,185.0938L306.8125,185.0938Q308.5312,181.2812,314.0781,181.2812L317.25,181.2812Q322.5,181.2812,325.3125,184.1719Q328.125,187.0469,328.125,192.4375L328.125,216.7812Q328.125,218,326.8281,218L322.2812,218Q321.0625,218,321.0625,216.7812L321.0625,192.7344Q321.0625,187.4062,315.8125,187.4062L312.4219,187.4062Q306.5156,187.4062,306.5156,193.5156L306.5156,216.7812Q306.5156,218,305.2969,218ZM336.8906,175.1562L336.8906,168.6094Q336.8906,167.4531,338.0469,167.4531L342.7344,167.4531Q343.875,167.4531,343.875,168.6094L343.875,175.1562Q343.875,176.3906,342.7344,176.3906L338.0469,176.3906Q336.8906,176.3906,336.8906,175.1562ZM336.8906,216.7812L336.8906,182.5Q336.8906,181.2812,338.0469,181.2812L342.6562,181.2812Q343.875,181.2812,343.875,182.5L343.875,216.7812Q343.875,217.5,343.625,217.75Q343.375,218,342.7344,218L338.125,218Q336.8906,218,336.8906,216.7812ZM366.922,216.2031L363.688,216.2031Q358.5,216.2031,355.7188,213.2969Q352.9531,210.375,352.9531,205.0469L352.9531,192.4375Q352.9531,187.1094,355.9062,184.2031Q358.859,181.2812,364.125,181.2812L380.25,181.2812Q381.547,181.2812,381.547,182.5L381.547,218.1406Q381.547,223.4062,378.547,226.3125Q375.562,229.2344,370.312,229.2344L356.7812,229.2344Q355.5469,229.2344,355.5469,228.0781L355.5469,224.3438Q355.5469,223.1094,356.7812,223.1094L369.234,223.1094Q374.484,223.1094,374.484,217.7812L374.484,212.3125L374.203,212.3125Q372.406,216.2031,366.922,216.2031ZM374.484,203.9531L374.484,188.125Q374.484,187.4062,373.703,187.4062L365.125,187.4062Q360.016,187.4062,360.016,192.7344L360.016,204.6875Q360.016,210.0156,365.125,210.0156L368.578,210.0156Q374.484,210.0156,374.484,203.9531ZM396.297,218L391.76599999999996,218Q390.531,218,390.531,216.7812L390.531,182.5Q390.531,181.2812,391.76599999999996,181.2812L396.297,181.2812Q397.51599999999996,181.2812,397.51599999999996,182.5L397.51599999999996,185.2344L397.812,185.2344Q398.531,183.4375,400.578,182.3594Q402.625,181.2812,405.156,181.2812L407.812,181.2812Q409.047,181.2812,409.047,182.5L409.047,186.25Q409.047,187.6094,407.812,187.4062L403.5,187.4062Q397.51599999999996,187.4062,397.51599999999996,193.9531L397.51599999999996,216.7812Q397.51599999999996,218,396.297,218ZM414.89099999999996,175.1562L414.89099999999996,168.6094Q414.89099999999996,167.4531,416.047,167.4531L420.73400000000004,167.4531Q421.875,167.4531,421.875,168.6094L421.875,175.1562Q421.875,176.3906,420.73400000000004,176.3906L416.047,176.3906Q414.89099999999996,176.3906,414.89099999999996,175.1562ZM414.89099999999996,216.7812L414.89099999999996,182.5Q414.89099999999996,181.2812,416.047,181.2812L420.656,181.2812Q421.875,181.2812,421.875,182.5L421.875,216.7812Q421.875,217.5,421.625,217.75Q421.375,218,420.73400000000004,218L416.125,218Q414.89099999999996,218,414.89099999999996,216.7812ZM437.297,218L432.76599999999996,218Q431.531,218,431.531,216.7812L431.531,182.5Q431.531,181.2812,432.76599999999996,181.2812L437.297,181.2812Q438.51599999999996,181.2812,438.51599999999996,182.5L438.51599999999996,185.0938L438.812,185.0938Q440.89099999999996,181.2812,446.438,181.2812L448.812,181.2812Q455.078,181.2812,457.75,186.0312Q458.89099999999996,183.7344,461.26599999999996,182.5156Q463.64099999999996,181.2812,466.39099999999996,181.2812L468.688,181.2812Q473.938,181.2812,476.703,184.2031Q479.48400000000004,187.1094,479.48400000000004,192.4375L479.48400000000004,216.7812Q479.48400000000004,218,478.26599999999996,218L473.656,218Q472.438,218,472.438,216.7812L472.438,192.7344Q472.438,187.4062,467.25,187.4062L465.156,187.4062Q459.188,187.4062,459.188,193.6562L459.188,216.7812Q459.188,218,457.89099999999996,218L453.35900000000004,218Q452.125,218,452.125,216.7812L452.125,192.7344Q452.125,187.4062,446.938,187.4062L444.422,187.4062Q438.51599999999996,187.4062,438.51599999999996,193.5156L438.51599999999996,216.7812Q438.51599999999996,218,437.297,218ZM514.031,211.875L524.188,211.875Q529.375,211.875,529.375,206.5469L529.375,183.1562Q529.375,177.8281,524.188,177.8281L514.031,177.8281Q513.2339999999999,177.8281,513.2339999999999,178.5469L513.2339999999999,211.0938Q513.2339999999999,211.875,514.031,211.875ZM506.25,216.7812L506.25,172.9219Q506.25,171.7031,507.48400000000004,171.7031L525.188,171.7031Q530.453,171.7031,533.438,174.625Q536.422,177.5312,536.422,182.8594L536.422,206.8438Q536.422,212.0938,533.438,215.0469Q530.453,218,525.188,218L507.48400000000004,218Q506.25,218,506.25,216.7812ZM562.312,218L555.969,218Q550.6410000000001,218,547.719,215.0469Q544.812,212.0938,544.812,206.8438L544.812,192.4375Q544.812,187.1094,547.719,184.2031Q550.6410000000001,181.2812,555.969,181.2812L562.312,181.2812Q567.562,181.2812,570.547,184.2031Q573.547,187.1094,573.547,192.4375L573.547,206.8438Q573.547,212.0938,570.547,215.0469Q567.562,218,562.312,218ZM556.9839999999999,211.875L561.375,211.875Q566.562,211.875,566.562,206.625L566.562,192.6562Q566.562,187.4062,561.375,187.4062L556.9839999999999,187.4062Q554.25,187.4062,553.0160000000001,188.6719Q551.797,189.9219,551.797,192.6562L551.797,206.625Q551.797,209.3594,553.0160000000001,210.625Q554.25,211.875,556.9839999999999,211.875ZM603.8589999999999,213.1094L603.8589999999999,216.8438Q603.8589999999999,218,602.562,218L591.969,218Q586.6410000000001,218,583.719,215.0469Q580.812,212.0938,580.812,206.8438L580.812,192.4375Q580.812,187.1094,583.719,184.2031Q586.6410000000001,181.2812,591.969,181.2812L602.562,181.2812Q603.8589999999999,181.2812,603.8589999999999,182.5L603.8589999999999,186.25Q603.8589999999999,187.4062,602.562,187.4062L592.9839999999999,187.4062Q587.797,187.4062,587.797,192.7344L587.797,206.5469Q587.797,211.875,592.9839999999999,211.875L602.562,211.875Q603.8589999999999,211.875,603.8589999999999,213.1094ZM623.6410000000001,218L610.3910000000001,218Q609.172,218,609.172,216.7812L609.172,213.25Q609.172,212.0938,610.3910000000001,212.0938L622.4839999999999,212.0938Q627.172,212.0938,627.172,208.8594L627.172,207.9844Q627.172,205.1094,623.781,203.5938L615.938,199.8594Q612.2660000000001,198.125,610.6089999999999,196.0469Q608.953,193.9531,608.953,190.5625Q608.953,181.2812,619.25,181.2812L631.203,181.2812Q632.3589999999999,181.2812,632.3589999999999,182.5L632.3589999999999,186.0312Q632.3589999999999,187.25,631.203,187.25L620.688,187.25Q618.531,187.25,617.375,188.0156Q616.219,188.7656,616.219,189.9844L616.219,190.7812Q616.219,193.0938,619.8910000000001,194.8125L627.812,198.8438Q631.562,200.5,632.969,202.7812Q634.375,205.0469,634.375,208.6406Q634.375,218,623.6410000000001,218Z" fill="#3EAF7C" fill-opacity="1"/></g></g></svg>