<svg xmlns="http://www.w3.org/2000/svg" xmlns:xlink="http://www.w3.org/1999/xlink" fill="none" version="1.1" width="380" height="92" viewBox="0 0 380 92"><g style="mix-blend-mode:passthrough"><path d="M11.0156,67L6.48438,67Q5.25,67,5.25,65.7812L5.25,21.9219Q5.25,20.7031,6.48438,20.7031L23.6094,20.7031Q28.875,20.7031,31.8281,23.625Q34.7812,26.5312,34.7812,31.8594L34.7812,39.3594Q34.7812,44.6094,31.8281,47.5625Q28.875,50.5156,23.6094,50.5156L13.1094,50.5156Q12.2344,50.5156,12.2344,51.2344L12.2344,65.7812Q12.2344,67,11.0156,67ZM13.0312,44.3125L22.6094,44.3125Q27.7188,44.3125,27.7188,38.9844L27.7188,32.1562Q27.7188,26.8281,22.6094,26.8281L13.0312,26.8281Q12.2344,26.8281,12.2344,27.5469L12.2344,43.5938Q12.2344,44.3125,13.0312,44.3125ZM48.2969,67L43.7656,67Q42.5312,67,42.5312,65.7812L42.5312,17.6094Q42.5312,16.3906,43.7656,16.3906L48.2969,16.3906Q49.5156,16.3906,49.5156,17.6094L49.5156,34.0938L49.8125,34.0938Q51.5312,30.2812,57.0781,30.2812L60.25,30.2812Q65.5,30.2812,68.3125,33.1719Q71.125,36.0469,71.125,41.4375L71.125,65.7812Q71.125,67,69.8281,67L65.2812,67Q64.0625,67,64.0625,65.7812L64.0625,41.7344Q64.0625,36.4062,58.8125,36.4062L55.4219,36.4062Q49.5156,36.4062,49.5156,42.5156L49.5156,65.7812Q49.5156,67,48.2969,67ZM79.8906,24.1562L79.8906,17.6094Q79.8906,16.4531,81.0469,16.4531L85.7344,16.4531Q86.875,16.4531,86.875,17.6094L86.875,24.1562Q86.875,25.3906,85.7344,25.3906L81.0469,25.3906Q79.8906,25.3906,79.8906,24.1562ZM79.8906,65.7812L79.8906,31.5Q79.8906,30.2812,81.0469,30.2812L85.6562,30.2812Q86.875,30.2812,86.875,31.5L86.875,65.7812Q86.875,66.5,86.625,66.75Q86.375,67,85.7344,67L81.125,67Q79.8906,67,79.8906,65.7812ZM109.922,65.2031L106.688,65.2031Q101.5,65.2031,98.7188,62.2969Q95.9531,59.375,95.9531,54.0469L95.9531,41.4375Q95.9531,36.1094,98.9062,33.2031Q101.859,30.2812,107.125,30.2812L123.25,30.2812Q124.547,30.2812,124.547,31.5L124.547,67.1406Q124.547,72.4062,121.547,75.3125Q118.562,78.2344,113.312,78.2344L99.7812,78.2344Q98.5469,78.2344,98.5469,77.0781L98.5469,73.3438Q98.5469,72.1094,99.7812,72.1094L112.234,72.1094Q117.484,72.1094,117.484,66.7812L117.484,61.3125L117.203,61.3125Q115.406,65.2031,109.922,65.2031ZM117.484,52.9531L117.484,37.125Q117.484,36.4062,116.703,36.4062L108.125,36.4062Q103.016,36.4062,103.016,41.7344L103.016,53.6875Q103.016,59.0156,108.125,59.0156L111.578,59.0156Q117.484,59.0156,117.484,52.9531ZM139.297,67L134.766,67Q133.531,67,133.531,65.7812L133.531,31.5Q133.531,30.2812,134.766,30.2812L139.297,30.2812Q140.516,30.2812,140.516,31.5L140.516,34.2344L140.812,34.2344Q141.531,32.4375,143.578,31.3594Q145.625,30.2812,148.156,30.2812L150.812,30.2812Q152.047,30.2812,152.047,31.5L152.047,35.25Q152.047,36.6094,150.812,36.4062L146.5,36.4062Q140.516,36.4062,140.516,42.9531L140.516,65.7812Q140.516,67,139.297,67ZM157.891,24.1562L157.891,17.6094Q157.891,16.4531,159.047,16.4531L163.734,16.4531Q164.875,16.4531,164.875,17.6094L164.875,24.1562Q164.875,25.3906,163.734,25.3906L159.047,25.3906Q157.891,25.3906,157.891,24.1562ZM157.891,65.7812L157.891,31.5Q157.891,30.2812,159.047,30.2812L163.656,30.2812Q164.875,30.2812,164.875,31.5L164.875,65.7812Q164.875,66.5,164.625,66.75Q164.375,67,163.734,67L159.125,67Q157.891,67,157.891,65.7812ZM180.297,67L175.766,67Q174.531,67,174.531,65.7812L174.531,31.5Q174.531,30.2812,175.766,30.2812L180.297,30.2812Q181.516,30.2812,181.516,31.5L181.516,34.0938L181.812,34.0938Q183.891,30.2812,189.438,30.2812L191.812,30.2812Q198.078,30.2812,200.75,35.0312Q201.891,32.7344,204.266,31.5156Q206.641,30.2812,209.391,30.2812L211.688,30.2812Q216.938,30.2812,219.703,33.2031Q222.484,36.1094,222.484,41.4375L222.484,65.7812Q222.484,67,221.266,67L216.656,67Q215.438,67,215.438,65.7812L215.438,41.7344Q215.438,36.4062,210.25,36.4062L208.156,36.4062Q202.188,36.4062,202.188,42.6562L202.188,65.7812Q202.188,67,200.891,67L196.359,67Q195.125,67,195.125,65.7812L195.125,41.7344Q195.125,36.4062,189.938,36.4062L187.422,36.4062Q181.516,36.4062,181.516,42.5156L181.516,65.7812Q181.516,67,180.297,67ZM257.031,60.875L267.188,60.875Q272.375,60.875,272.375,55.5469L272.375,32.1562Q272.375,26.8281,267.188,26.8281L257.031,26.8281Q256.234,26.8281,256.234,27.5469L256.234,60.0938Q256.234,60.875,257.031,60.875ZM249.25,65.7812L249.25,21.9219Q249.25,20.7031,250.484,20.7031L268.188,20.7031Q273.453,20.7031,276.438,23.625Q279.422,26.5312,279.422,31.8594L279.422,55.8438Q279.422,61.0938,276.438,64.0469Q273.453,67,268.188,67L250.484,67Q249.25,67,249.25,65.7812ZM305.312,67L298.969,67Q293.641,67,290.719,64.0469Q287.812,61.0938,287.812,55.8438L287.812,41.4375Q287.812,36.1094,290.719,33.2031Q293.641,30.2812,298.969,30.2812L305.312,30.2812Q310.562,30.2812,313.547,33.2031Q316.547,36.1094,316.547,41.4375L316.547,55.8438Q316.547,61.0938,313.547,64.0469Q310.562,67,305.312,67ZM299.984,60.875L304.375,60.875Q309.562,60.875,309.562,55.625L309.562,41.6562Q309.562,36.4062,304.375,36.4062L299.984,36.4062Q297.25,36.4062,296.016,37.6719Q294.797,38.9219,294.797,41.6562L294.797,55.625Q294.797,58.3594,296.016,59.625Q297.25,60.875,299.984,60.875ZM346.859,62.1094L346.859,65.8438Q346.859,67,345.562,67L334.969,67Q329.641,67,326.719,64.0469Q323.812,61.0938,323.812,55.8438L323.812,41.4375Q323.812,36.1094,326.719,33.2031Q329.641,30.2812,334.969,30.2812L345.562,30.2812Q346.859,30.2812,346.859,31.5L346.859,35.25Q346.859,36.4062,345.562,36.4062L335.984,36.4062Q330.797,36.4062,330.797,41.7344L330.797,55.5469Q330.797,60.875,335.984,60.875L345.562,60.875Q346.859,60.875,346.859,62.1094ZM366.641,67L353.391,67Q352.172,67,352.172,65.7812L352.172,62.25Q352.172,61.0938,353.391,61.0938L365.484,61.0938Q370.172,61.0938,370.172,57.8594L370.172,56.9844Q370.172,54.1094,366.781,52.5938L358.938,48.8594Q355.266,47.125,353.609,45.0469Q351.953,42.9531,351.953,39.5625Q351.953,30.2812,362.25,30.2812L374.203,30.2812Q375.359,30.2812,375.359,31.5L375.359,35.0312Q375.359,36.25,374.203,36.25L363.688,36.25Q361.531,36.25,360.375,37.0156Q359.219,37.7656,359.219,38.9844L359.219,39.7812Q359.219,42.0938,362.891,43.8125L370.812,47.8438Q374.562,49.5,375.969,51.7812Q377.375,54.0469,377.375,57.6406Q377.375,67,366.641,67Z" fill="#3EAF7C" fill-opacity="1"/></g></svg>